<svg width="39" height="23" viewBox="0 0 39 23" fill="none" xmlns="http://www.w3.org/2000/svg">
<path fill-rule="evenodd" clip-rule="evenodd" d="M0.38659 2.19927C-0.436437 1.39051 0.141766 0 1.3011 0H8.52506C14.3043 0 18.9894 4.64063 18.9894 10.3651V12.6349C18.9894 14.3068 18.5897 15.8863 17.8798 17.2848C18.7684 17.7247 19.853 17.6438 20.6698 17.0411V2.19408C20.6698 0.982322 21.6615 0 22.8848 0H36.9748C38.1366 0 38.7137 1.39559 37.8857 2.20284L22.0446 17.6466V20.8059C22.0446 21.2656 22.4208 21.6382 22.8848 21.6382H37.5459L30.8907 12.8934C30.6621 12.5931 30.7226 12.1662 31.0258 11.9398C31.329 11.7134 31.76 11.7734 31.9885 12.0737L38.736 20.9396C39.381 21.7871 38.7706 23 37.6991 23H22.8848C21.6615 23 20.6698 22.0177 20.6698 20.8059V18.6021C19.5524 19.076 18.2641 19.0285 17.1814 18.4606C15.2982 21.2006 12.1238 23 8.52506 23H3.63662C2.41327 23 1.42155 22.0177 1.42155 20.8059V7.49013C1.42155 7.11407 1.72932 6.80921 2.10898 6.80921C2.48864 6.80921 2.79642 7.11407 2.79642 7.49013V20.8059C2.79642 21.2656 3.17259 21.6382 3.63662 21.6382H8.52506C11.6797 21.6382 14.459 20.0463 16.0889 17.6293L0.38659 2.19927ZM16.7858 16.3959C17.3178 15.2514 17.6145 13.9774 17.6145 12.6349V10.3651C17.6145 5.39275 13.545 1.36184 8.52506 1.36184H1.48654L16.7858 16.3959ZM22.0446 15.7358L36.7883 1.36184H22.8848C22.4208 1.36184 22.0446 1.73445 22.0446 2.19408V15.7358Z" fill="#696969"/>
</svg>
