<svg width="300" height="300" viewBox="0 0 300 300" fill="none" xmlns="http://www.w3.org/2000/svg">
<rect width="300" height="300" fill="white"/>
<path fill-rule="evenodd" clip-rule="evenodd" d="M273.102 165C265.697 226.41 213.406 274 150 274C86.5937 274 34.3028 226.41 26.898 165H0V135H26.898C34.3028 73.5903 86.5937 26 150 26C213.406 26 265.697 73.5903 273.102 135H300V165H273.102ZM150 254C207.438 254 254 207.438 254 150C254 92.5624 207.438 46 150 46C92.5624 46 46 92.5624 46 150C46 207.438 92.5624 254 150 254Z" fill="#D9D9D9"/>
</svg>
